<svg xmlns="http://www.w3.org/2000/svg" width="780" height="180" viewBox="0 0 780 180" fill="none">
  <g transform="translate(10 35) scale(0.48)">
    <path d="M 245.0 11.0 L 224.0 15.0 L 201.0 25.0 L 188.0 34.0 L 173.0 49.0 L 163.0 64.0 L 153.0 88.0 L 150.0 103.0 L 150.0 127.0 L 155.0 148.0 L 167.0 171.0 L 183.0 180.0 L 216.0 207.0 L 229.0 214.0 L 247.0 218.0 L 263.0 218.0 L 289.0 212.0 L 300.0 207.0 L 300.0 204.0 L 281.0 178.0 L 264.0 182.0 L 234.0 180.0 L 214.0 170.0 L 198.0 154.0 L 187.0 130.0 L 186.0 105.0 L 190.0 90.0 L 200.0 73.0 L 219.0 56.0 L 232.0 50.0 L 245.0 47.0 L 271.0 49.0 L 292.0 59.0 L 308.0 75.0 L 318.0 94.0 L 321.0 121.0 L 312.0 151.0 L 332.0 178.0 L 335.0 178.0 L 342.0 168.0 L 352.0 146.0 L 356.0 129.0 L 357.0 111.0 L 355.0 94.0 L 349.0 75.0 L 338.0 55.0 L 321.0 36.0 L 304.0 24.0 L 283.0 15.0 L 261.0 11.0 Z M 43.0 38.0 L 30.0 53.0 L 18.0 74.0 L 10.0 105.0 L 11.0 131.0 L 16.0 150.0 L 24.0 167.0 L 38.0 186.0 L 64.0 206.0 L 77.0 212.0 L 100.0 218.0 L 117.0 219.0 L 135.0 217.0 L 179.0 201.0 L 189.0 201.0 L 204.0 205.0 L 204.0 203.0 L 188.0 191.0 L 165.0 179.0 L 151.0 178.0 L 120.0 184.0 L 103.0 183.0 L 89.0 179.0 L 76.0 172.0 L 61.0 158.0 L 51.0 141.0 L 47.0 129.0 L 46.0 107.0 L 49.0 93.0 L 59.0 74.0 L 71.0 61.0 L 85.0 52.0 L 105.0 46.0 L 125.0 46.0 L 144.0 51.0 L 165.0 23.0 L 136.0 12.0 L 120.0 10.0 L 99.0 11.0 L 74.0 18.0 L 62.0 24.0 Z" fill="#083F2F" fill-rule="evenodd"/>
  <path d="M 256.0 131.0 L 260.0 137.0 L 259.0 144.0 L 263.0 146.0 L 264.0 153.0 L 267.0 155.0 L 268.0 159.0 L 301.0 204.0 L 301.0 207.0 L 310.0 213.0 L 323.0 218.0 L 362.0 218.0 L 362.0 216.0 L 341.0 204.0 L 329.0 192.0 L 293.0 142.0 L 286.0 135.0 L 278.0 131.0 Z" fill="#79D8AF" fill-rule="evenodd"/>
  </g>
  <text x="214" y="112" font-family="Inter, Arial, Helvetica, sans-serif" font-size="58" font-weight="700" letter-spacing="-1.2" fill="#16201D">Critique</text>
</svg>